<svg xmlns="http://www.w3.org/2000/svg" viewBox="0 0 377.03 298.66"><defs><style>.cls-1{fill:none;stroke:#fff;stroke-width:3px;}.cls-2{fill:#fff;}.cls-3{fill:#f26a2b;}.cls-4{fill:#0a0203;}.cls-5{fill:#231f20;}</style></defs><title>Asset 1</title><g id="Layer_2" data-name="Layer 2"><g id="Layer_1-2" data-name="Layer 1"><path class="cls-1" d="M110.89,291.7H96.37v-3.65h1.18v-7.94h-1.2v-3.65h14.55v4.87h-4v-1.23h-3.46v2.34h3v3.1h-3v2.5h3.46v-1.23h4Z"/><path class="cls-1" d="M116.95,291.83h-3.4v-3.37h3.19a3.65,3.65,0,0,0,2.68,1.29q1.47,0,1.47-.6a.51.51,0,0,0-.32-.47,10,10,0,0,0-1.74-.51q-1.14-.31-2.52-.71a5.79,5.79,0,0,1-1.88-.85,2.94,2.94,0,0,1-1-1,2.74,2.74,0,0,1-.26-1.29,2.9,2.9,0,0,1,1.25-2.59,5.57,5.57,0,0,1,3.14-.82,6.71,6.71,0,0,1,3.31.74v-.55h3.36v3.09h-3.11a3.86,3.86,0,0,0-2.76-1.11q-1.26,0-1.26.67,0,.32.37.42t2.1.47a23,23,0,0,1,3.16.85,3.92,3.92,0,0,1,1.7,1.13,2.67,2.67,0,0,1,.56,1.72,3,3,0,0,1-1.37,2.71,6.12,6.12,0,0,1-3.35.86,7.17,7.17,0,0,1-3.36-.72Z"/><path class="cls-1" d="M135.79,287.82v3.26a5.28,5.28,0,0,1-1.55.63,7.94,7.94,0,0,1-2.06.28,5.09,5.09,0,0,1-2.12-.4,3.15,3.15,0,0,1-1.37-1.12,4,4,0,0,1-.37-.74,3.55,3.55,0,0,1-.17-.75q-.08-.72-.08-2.79v-1.79H126.7v-3.34h1.36v-1.63l5.51-2.62v4.25h2.22v3.34h-2.22v2.06a3.19,3.19,0,0,0,.19,1.35.76.76,0,0,0,.74.34A3.27,3.27,0,0,0,135.79,287.82Z"/><path class="cls-1" d="M145,291.7h-5.46v-4H145Z"/><path class="cls-1" d="M241.82,291.7h-9.11v-3.5h2.17v-6.89a6.73,6.73,0,0,1-1.62.15,3.86,3.86,0,0,1-.55,0v-3.37H233a6.34,6.34,0,0,0,2.66-.56,4.23,4.23,0,0,0,1.79-1.35h2.29v12h2.1Z"/><path class="cls-1" d="M243.6,288.06l3.81-.34a1.86,1.86,0,0,0,1.84,1.24q2.18,0,2.29-3.55a5.33,5.33,0,0,1-3.15.94,4.84,4.84,0,0,1-3.47-1.36,4.59,4.59,0,0,1-1.44-3.48,4.76,4.76,0,0,1,1.79-3.93,6.51,6.51,0,0,1,4.18-1.42,6.61,6.61,0,0,1,5,2,9.79,9.79,0,0,1,.16,11.53,6.54,6.54,0,0,1-5.3,2.11,6.89,6.89,0,0,1-3.73-.94A4.3,4.3,0,0,1,243.6,288.06Zm8-5.4q0-3.45-2-3.45-1.58,0-1.58,2a2.29,2.29,0,0,0,.47,1.55,1.49,1.49,0,0,0,1.21.56A3.39,3.39,0,0,0,251.61,282.67Z"/><path class="cls-1" d="M257.69,288.06l3.81-.34a1.86,1.86,0,0,0,1.84,1.24q2.18,0,2.29-3.55a5.33,5.33,0,0,1-3.15.94A4.84,4.84,0,0,1,259,285a4.59,4.59,0,0,1-1.45-3.48,4.76,4.76,0,0,1,1.8-3.93,6.51,6.51,0,0,1,4.18-1.42,6.61,6.61,0,0,1,5,2,9.79,9.79,0,0,1,.16,11.53,6.55,6.55,0,0,1-5.3,2.11,6.89,6.89,0,0,1-3.73-.94A4.29,4.29,0,0,1,257.69,288.06Zm8-5.4q0-3.45-2-3.45-1.58,0-1.58,2a2.3,2.3,0,0,0,.47,1.55,1.5,1.5,0,0,0,1.22.56A3.39,3.39,0,0,0,265.71,282.67Z"/><path class="cls-1" d="M280.4,286.93h3.15l-.13,4.76H271.3c0-.31,0-.46,0-.47a7.82,7.82,0,0,1,.92-3.81,7.91,7.91,0,0,1,1.3-1.72,15.51,15.51,0,0,1,2-1.72,19.64,19.64,0,0,0,2.59-2.15,2.11,2.11,0,0,0,.58-1.37,1.55,1.55,0,0,0-.39-1.09,1.53,1.53,0,0,0-1.18-.43q-1.68,0-1.69,2.13l-3.92-.12a4.41,4.41,0,0,1,1.74-3.71,8.37,8.37,0,0,1,8.52.16,3.92,3.92,0,0,1,1.69,3.28,3.86,3.86,0,0,1-.85,2.41,10.37,10.37,0,0,1-3.34,2.36A20.35,20.35,0,0,0,276.6,287a3.81,3.81,0,0,0-1.05,1.22h4.79Z"/><path class="cls-1" d="M110.89,291.7H96.37v-3.65h1.18v-7.94h-1.2v-3.65h14.55v4.87h-4v-1.23h-3.46v2.34h3v3.1h-3v2.5h3.46v-1.23h4Z"/><path class="cls-1" d="M116.95,291.83h-3.4v-3.37h3.19a3.65,3.65,0,0,0,2.68,1.29q1.47,0,1.47-.6a.51.51,0,0,0-.32-.47,10,10,0,0,0-1.74-.51q-1.14-.31-2.52-.71a5.79,5.79,0,0,1-1.88-.85,2.94,2.94,0,0,1-1-1,2.74,2.74,0,0,1-.26-1.29,2.9,2.9,0,0,1,1.25-2.59,5.57,5.57,0,0,1,3.14-.82,6.71,6.71,0,0,1,3.31.74v-.55h3.36v3.09h-3.11a3.86,3.86,0,0,0-2.76-1.11q-1.26,0-1.26.67,0,.32.37.42t2.1.47a23,23,0,0,1,3.16.85,3.92,3.92,0,0,1,1.7,1.13,2.67,2.67,0,0,1,.56,1.72,3,3,0,0,1-1.37,2.71,6.12,6.12,0,0,1-3.35.86,7.17,7.17,0,0,1-3.36-.72Z"/><path class="cls-1" d="M135.79,287.82v3.26a5.28,5.28,0,0,1-1.55.63,7.94,7.94,0,0,1-2.06.28,5.09,5.09,0,0,1-2.12-.4,3.15,3.15,0,0,1-1.37-1.12,4,4,0,0,1-.37-.74,3.55,3.55,0,0,1-.17-.75q-.08-.72-.08-2.79v-1.79H126.7v-3.34h1.36v-1.63l5.51-2.62v4.25h2.22v3.34h-2.22v2.06a3.19,3.19,0,0,0,.19,1.35.76.76,0,0,0,.74.34A3.27,3.27,0,0,0,135.79,287.82Z"/><path class="cls-1" d="M145,291.7h-5.46v-4H145Z"/><path class="cls-1" d="M241.82,291.7h-9.11v-3.5h2.17v-6.89a6.73,6.73,0,0,1-1.62.15,3.86,3.86,0,0,1-.55,0v-3.37H233a6.34,6.34,0,0,0,2.66-.56,4.23,4.23,0,0,0,1.79-1.35h2.29v12h2.1Z"/><path class="cls-1" d="M243.6,288.06l3.81-.34a1.86,1.86,0,0,0,1.84,1.24q2.18,0,2.29-3.55a5.33,5.33,0,0,1-3.15.94,4.84,4.84,0,0,1-3.47-1.36,4.59,4.59,0,0,1-1.44-3.48,4.76,4.76,0,0,1,1.79-3.93,6.51,6.51,0,0,1,4.18-1.42,6.61,6.61,0,0,1,5,2,9.79,9.79,0,0,1,.16,11.53,6.54,6.54,0,0,1-5.3,2.11,6.89,6.89,0,0,1-3.73-.94A4.3,4.3,0,0,1,243.6,288.06Zm8-5.4q0-3.45-2-3.45-1.58,0-1.58,2a2.29,2.29,0,0,0,.47,1.55,1.49,1.49,0,0,0,1.21.56A3.39,3.39,0,0,0,251.61,282.67Z"/><path class="cls-1" d="M257.69,288.06l3.81-.34a1.86,1.86,0,0,0,1.84,1.24q2.18,0,2.29-3.55a5.33,5.33,0,0,1-3.15.94A4.84,4.84,0,0,1,259,285a4.59,4.59,0,0,1-1.45-3.48,4.76,4.76,0,0,1,1.8-3.93,6.51,6.51,0,0,1,4.18-1.42,6.61,6.61,0,0,1,5,2,9.79,9.79,0,0,1,.16,11.53,6.55,6.55,0,0,1-5.3,2.11,6.89,6.89,0,0,1-3.73-.94A4.29,4.29,0,0,1,257.69,288.06Zm8-5.4q0-3.45-2-3.45-1.58,0-1.58,2a2.3,2.3,0,0,0,.47,1.55,1.5,1.5,0,0,0,1.22.56A3.39,3.39,0,0,0,265.71,282.67Z"/><path class="cls-1" d="M280.4,286.93h3.15l-.13,4.76H271.3c0-.31,0-.46,0-.47a7.82,7.82,0,0,1,.92-3.81,7.91,7.91,0,0,1,1.3-1.72,15.51,15.51,0,0,1,2-1.72,19.64,19.64,0,0,0,2.59-2.15,2.11,2.11,0,0,0,.58-1.37,1.55,1.55,0,0,0-.39-1.09,1.53,1.53,0,0,0-1.18-.43q-1.68,0-1.69,2.13l-3.92-.12a4.41,4.41,0,0,1,1.74-3.71,8.37,8.37,0,0,1,8.52.16,3.92,3.92,0,0,1,1.69,3.28,3.86,3.86,0,0,1-.85,2.41,10.37,10.37,0,0,1-3.34,2.36A20.35,20.35,0,0,0,276.6,287a3.81,3.81,0,0,0-1.05,1.22h4.79Z"/><path id="white" class="cls-2" d="M375.34,161.92l-3.7-.42V137l-2.25-2.74,2.25-3.14V94.46l-6.44-10.68c2.9-1.11,5.63-2.25,8.16-3.39L377,78.73V53.6l-8.79,4c-14.52,6.56-34.44,12.5-57.69,17.54.16-21.18-1.52-39.45-1.52-39.45L188.51,0,68.58,36S66.9,54.25,67.06,75.43c-23.25-5-43.75-11.31-58.27-17.86L0,53.6V78.73l2.31,1v22l4.41,1.29v58.26l-4.7.52v22.19l-2,.51V209.3l8.08-2.61c18.13-5.85,45.46-10.58,79.24-13.74q.46,1.18.94,2.36a317.21,317.21,0,0,0-40.6,15.24l-8,3.64,4.78,7.67c-1.8.35-3.76.77-5.84,1.27-12.74,3-20.35,9.79-20.35,18,0,5.63,2.83,10.56,7.14,17.43a68.23,68.23,0,0,0,10.9,13.17,13.05,13.05,0,0,0,9.16,4.77c.36,0,.71,0,1.06,0a20.86,20.86,0,0,0,6.07-.93,27.87,27.87,0,0,0,4.09-1.49,9.57,9.57,0,0,1,4.56-1.1,30.88,30.88,0,0,1,3.52.31,35.91,35.91,0,0,1,14.31,5.29c2,1.29,7,5,7,5a26.64,26.64,0,0,0,2.54-8.09c.58-4.43-1.25-8.26-3.43-11.54.64-.08,1.25-.16,1.85-.25,12.15-1.9,16.84-4.53,20.09-11.26l.06-.13.05-.13c1.5-3.54.64-8.06-.65-11.76q2.66-.85,5.28-1.63a168.59,168.59,0,0,0,74.43,58.88l2.14.88,2.14-.88a168.6,168.6,0,0,0,74.42-58.87q2.61.77,5.26,1.62c-1.28,3.7-2.15,8.22-.65,11.76l.05.13.06.13c3.25,6.73,7.94,9.36,20.09,11.26.6.09,1.21.18,1.85.25-2.18,3.27-4,7.11-3.43,11.54a26.62,26.62,0,0,0,2.54,8.09s5-3.75,7-5a35.9,35.9,0,0,1,14.31-5.29,30.87,30.87,0,0,1,3.52-.31,9.57,9.57,0,0,1,4.56,1.1,27.84,27.84,0,0,0,4.09,1.49,20.86,20.86,0,0,0,6.07.93c.35,0,.7,0,1.06,0a13,13,0,0,0,9.16-4.77,68.23,68.23,0,0,0,10.9-13.17c4.31-6.87,7.14-11.8,7.14-17.43,0-8.24-7.61-15-20.35-18-2.08-.5-4-.92-5.84-1.27l4.78-7.67h0l-8-3.64a317.15,317.15,0,0,0-40.57-15.23q.48-1.18.94-2.36c33.78,3.16,61.11,7.89,79.24,13.74l8.08,2.61V184.57l-1.64-.42Zm-23.26,42.57a10,10,0,1,0,10,10A10,10,0,0,0,352.08,204.49Z"/><path class="cls-3" d="M188.65,182.86c30.2,0,58.85,1,84.72,2.92-1.27,3.35-2.64,6.68-4.08,10a349,349,0,0,0-80.95-9.24h0A348.8,348.8,0,0,0,108,195.78c-1.44-3.32-2.81-6.65-4.08-10C129.79,183.88,158.44,182.86,188.65,182.86Z"/><path class="cls-3" d="M188.65,279.82a148,148,0,0,1-62-50.72,277.76,277.76,0,0,1,62.47-7h0a277.64,277.64,0,0,1,61.56,7A147.93,147.93,0,0,1,188.65,279.82Z"/><path class="cls-4" d="M188.65,173.37c-75.79,0-145.69,5.89-182.41,15.37l-.38.1v12.56l.67-.21c19.6-6.32,49.09-11.24,84.75-14.38q2.26,6.07,4.87,12.07A311.72,311.72,0,0,0,50.2,215.59l-2.11,1L54,226a126.58,126.58,0,0,0-13.84,2.53c-10.66,2.55-16,7.65-16,12.52,0,3.94,2.12,7.8,6.27,14.42a61.56,61.56,0,0,0,10.25,12.3,7.45,7.45,0,0,0,5.32,3,15,15,0,0,0,5.26-.69c4.66-1.2,5.86-3.76,14.58-2.43C78.48,269.56,83.17,275,83.17,275s-.08-.29-.13-.44a4.18,4.18,0,0,1,.13.44c.53-5.78-5.32-11.55-7.38-13.39a27.29,27.29,0,0,0-4.11-2.86,91,91,0,0,0,14.68-.62c11.39-1.78,13.83-3.92,15.86-8.12,1.23-2.9-1-9.07-3.13-13q7.6-2.61,15.31-4.78a162.82,162.82,0,0,0,74.25,60.2,162.81,162.81,0,0,0,74.25-60.2q7.74,2.17,15.35,4.79c-2.15,3.89-4.4,10.11-3.17,13,2,4.2,4.47,6.34,15.86,8.12a91,91,0,0,0,14.68.62,27.48,27.48,0,0,0-4.11,2.86c-2.06,1.84-7.91,7.61-7.38,13.39a4.32,4.32,0,0,1,.13-.44c0,.15-.09.29-.13.44s4.7-5.39,17.36-7.33c8.72-1.33,9.92,1.22,14.58,2.43a15,15,0,0,0,5.26.69,7.45,7.45,0,0,0,5.32-3,61.63,61.63,0,0,0,10.25-12.3c4.15-6.62,6.28-10.48,6.28-14.42,0-4.87-5.33-10-16-12.52a126.35,126.35,0,0,0-13.92-2.54l5.92-9.51-2.11-1a311.83,311.83,0,0,0-45.9-16.71q2.61-6,4.87-12.07c35.65,3.14,65.15,8.05,84.75,14.38l.66.21V188.83l-.38-.1C333.78,179.11,265.58,173.37,188.65,173.37Zm0,9.49c30.2,0,58.85,1,84.72,2.92-1.27,3.35-2.64,6.68-4.08,10a349,349,0,0,0-80.95-9.24h0A348.8,348.8,0,0,0,108,195.78c-1.44-3.32-2.81-6.65-4.08-10C129.79,183.88,158.44,182.86,188.65,182.86ZM82.76,273.78c-2.47-5.25-12.36-8.19-12.36-8.19a32.07,32.07,0,0,0-14.09-1c-1.36.24-5.38,1.66-5.66,1.75-2.37.74-5.94,2.38-6.67-1.15,0-.19-.72-4.77,8.31-5.9a94.81,94.81,0,0,1,12.17-.64,27.37,27.37,0,0,1,6.05,2.92C79,267,81.83,271.68,82.76,273.78Zm2.45-18.83c-7.88.81-22-.58-33.15.81C42.74,256.93,40.78,261,40.43,262l-.11.2a79.06,79.06,0,0,1-8.89-11.43c-2.92-4.74-5.23-9.19-3.13-12.4s7.2-5.28,13.56-7a103.7,103.7,0,0,1,13.91-2.53l2.4,3.85a26.69,26.69,0,0,0-14.6,3.69,67.31,67.31,0,0,1,15.94-1.53l1.87,3a31.68,31.68,0,0,0-16.62,5.16,57.12,57.12,0,0,1,18.63-1.93l2.13,3.42a26.5,26.5,0,0,0-14.79,3.68,66.35,66.35,0,0,1,16.13-1.52l1.75,2.81s1.65,2.49,4,2.9c3.25.58,5.56-.37,9.5-1.64,4.12-1.33,11.27-3.76,13-.46C96.48,253,92.61,254.19,85.21,254.95Zm13.24-6c-1.59-4.21-8.25-4.37-16.43-1.64-2.87,1-5.75,2.28-7.9,1.62a5.59,5.59,0,0,1-1.88-1.12q11.36-5.29,23-9.5a14.07,14.07,0,0,1,2.6,5.22C98.26,245,99.37,248.16,98.45,249Zm90.2,30.84a148,148,0,0,1-62-50.72,277.76,277.76,0,0,1,62.47-7h0a277.64,277.64,0,0,1,61.56,7A147.93,147.93,0,0,1,188.65,279.82Zm90.21-30.77c-.92-.82.18-4,.56-5.43a14,14,0,0,1,2.64-5.28q11.69,4.21,23.06,9.51a5.62,5.62,0,0,1-1.93,1.17c-2.15.67-5-.66-7.9-1.61C287.1,244.68,280.44,244.84,278.85,249.05Zm54.46,16.16c-.73,3.54-4.3,1.9-6.67,1.16-.28-.09-4.3-1.51-5.66-1.75a32.09,32.09,0,0,0-14.09,1s-9.89,2.94-12.35,8.19c.92-2.1,3.79-6.81,12.24-12.26a27.38,27.38,0,0,1,6.05-2.92,94.76,94.76,0,0,1,12.17.64C334,260.44,333.35,265,333.31,265.21Zm2.13-33.71c6.36,1.67,11.36,3.59,13.56,7s-.21,7.66-3.13,12.4A78.74,78.74,0,0,1,337,262.28l-.11-.2c-.35-1-2.31-5.09-11.64-6.25-11.13-1.39-25.26,0-33.15-.81-7.4-.76-11.27-2-9.87-4.63,1.73-3.31,8.89-.88,13,.46,3.94,1.27,6.26,2.22,9.5,1.64,2.38-.43,3.93-3,3.93-3l1.69-2.72a66,66,0,0,1,16.21,1.52,26.46,26.46,0,0,0-14.87-3.67l2.13-3.42a57,57,0,0,1,18.72,1.92,31.66,31.66,0,0,0-16.7-5.16l1.86-3a66.91,66.91,0,0,1,16,1.53A26.64,26.64,0,0,0,319,232.82l2.41-3.86A103.42,103.42,0,0,1,335.44,231.49Zm-12.17-13.16-16.15,25.94A278.73,278.73,0,0,0,188.16,218h0a278.67,278.67,0,0,0-118,26.31L54,218.34c41.1-18.4,86.48-27.72,134.93-27.72h0C237.16,190.68,282.33,200,323.26,218.33Z"/><path class="cls-4" d="M7.82,166.82v14.89c10-2.07,22.25-3.94,36.3-5.55v-20.9l-10.71.46v8.74l-8.66.69v-25l4.59.18v6.81l9.28,0V121.46l-9-1.09v6.8l-4.84-.49V101.78l8.66,1.84v8.86l10.69,1.59V93.12a229.2,229.2,0,0,1-36-10.55V97.42l4.41,1.29V166.3Z"/><path class="cls-4" d="M258.38,160.59l-3-.06v9.92c9.37.36,16.79.73,25.56,1.24l7.59-8.44V109.72l-5.21-8.3h0c-9.86,1.17-17.36,1.9-27.92,2.69v10l3-.19Zm10.39-47.38,9.21-.71v48.61l-9.21-.27Z"/><path class="cls-4" d="M128.26,160.45l-4.21.09v9.94c9.77-.39,19.81-.69,30.06-.91V150.37h-9v9.79l-5.64.09V114.94l4.36.19v-9.65h0q-10.16-.54-20-1.32v10l4.51.26Z"/><path class="cls-4" d="M333.29,163.68l-3.76-.24V175.7h0c6.12.68,11.94,1.4,17.4,2.17V164.66l-3.5-.27V142.64l10.85-.24v22.87l-3.36-.29v13.46c6.91,1,13.22,2.15,18.86,3.33V166.85l-3.7-.42V138.86l-3.72-4.54,3.72-5.19V95.91l-6.18-10a291.19,291.19,0,0,1-30.53,8v12.25l3.88-.74Zm9.87-59.94,11.25-2.48v27.56l-11.25.94Z"/><path class="cls-4" d="M115.44,170.78l5.3-8.53V135.11l-14.27-.39v10.14l3.1,0v16l-9,.26V112.57l9,.7v13.36l11.17.48V112.37l-4.07-8.66c-6.68-.6-15.86-1.5-22.23-2.25h0l-5.24,8.29v53.54l6.23,8.53C101.09,171.48,109.51,171.05,115.44,170.78Z"/><path class="cls-4" d="M296.09,161.73l-3.77-.15v10.78h0c12,.81,23.28,1.76,33.72,2.84h0V155l-11.33-.28v7.84l-8.15-.39V141.46l4.59-.1v5.86h7.87V123.49l-7.87.65V130l-4.59.28V109.6l8.09-1v7.86l11-1.27V94.92C315.26,97,304,98.85,292,100.42h0v10.8l4.12-.43Z"/><path class="cls-4" d="M159.72,160l-2.85,0v9.52h.22c10.24-.2,21.43-.3,32-.31V153.46H178.54v6.38l-7.81,0V142.55l5.81,0v4.82h7.19V128.45l-7.39-.05v4.82l-5.56,0V115.88L178,116v6.38l11,.06V106.69H189q-12.42,0-24.61-.41c-2.74-.07-5.54-.13-7.52-.23v9.5l2.85.1Z"/><path class="cls-4" d="M236.82,160.15l-4.47,0v9.6c6,.14,13.88.39,19.65.59v-9.87l-4.52-.09V114.59l4.52-.25v-9.89l-.64,0c-6.22.44-12.55.93-19,1.23h-.06v9.59l4.47-.17Z"/><path class="cls-4" d="M194.86,159.83H192v9.38h.06c5.86,0,11.25.05,17,.11v-9.43l-2.86,0V144.18l8.81,0v15.76h-2.86v9.44c5.8.07,11.74.16,17.4.28v-9.57l-2.85,0V142l-3.86-3.15,3.53-3.21V113.89l-6.25-7.71H220c-9.22.31-28,.51-28,.51v9.38h2.85Zm11-43.87,9.28-.17v18.91l-9.28.07Z"/><path class="cls-4" d="M65.39,174v-11.5l-3.22.1.88-9,8.3-.15.85,8.74-3.17.15v11.36q8.48-.71,17.52-1.32V161.61l-2.18.08L77.12,99.21h0c-7.35-1.08-12.87-2.07-19.62-3.35h0l-7.14,67.48-3,.18V175.8Q56,174.85,65.39,174Zm2-64.91.64.09,3,34.23-7-.1Z"/><path class="cls-4" d="M355.64,212.49c0-1.88-1.18-2.67-3.48-2.67h-3.61v9.28h1.62v-3.92h1.38l2.37,3.92h1.88l-2.54-4A2.52,2.52,0,0,0,355.64,212.49Zm-5.47,1.34v-2.65H352c.92,0,2.06.18,2.06,1.25,0,1.29-1,1.4-2.19,1.4Z"/><path class="cls-4" d="M352.05,206.33a8.12,8.12,0,1,0,8.12,8.12A8.12,8.12,0,0,0,352.05,206.33Zm0,14.49a6.38,6.38,0,1,1,6.13-6.37A6.25,6.25,0,0,1,352.05,220.83Z"/><path class="cls-2" d="M110.89,291.7H96.37v-3.65h1.18v-7.94h-1.2v-3.65h14.55v4.87h-4v-1.23h-3.46v2.34h3v3.1h-3v2.5h3.46v-1.23h4Z"/><path class="cls-2" d="M116.95,291.83h-3.4v-3.37h3.19a3.65,3.65,0,0,0,2.68,1.29q1.47,0,1.47-.6a.51.51,0,0,0-.32-.47,10,10,0,0,0-1.74-.51q-1.14-.31-2.52-.71a5.79,5.79,0,0,1-1.88-.85,2.94,2.94,0,0,1-1-1,2.74,2.74,0,0,1-.26-1.29,2.9,2.9,0,0,1,1.25-2.59,5.57,5.57,0,0,1,3.14-.82,6.71,6.71,0,0,1,3.31.74v-.55h3.36v3.09h-3.11a3.86,3.86,0,0,0-2.76-1.11q-1.26,0-1.26.67,0,.32.37.42t2.1.47a23,23,0,0,1,3.16.85,3.92,3.92,0,0,1,1.7,1.13,2.67,2.67,0,0,1,.56,1.72,3,3,0,0,1-1.37,2.71,6.12,6.12,0,0,1-3.35.86,7.17,7.17,0,0,1-3.36-.72Z"/><path class="cls-2" d="M135.79,287.82v3.26a5.28,5.28,0,0,1-1.55.63,7.94,7.94,0,0,1-2.06.28,5.09,5.09,0,0,1-2.12-.4,3.15,3.15,0,0,1-1.37-1.12,4,4,0,0,1-.37-.74,3.55,3.55,0,0,1-.17-.75q-.08-.72-.08-2.79v-1.79H126.7v-3.34h1.36v-1.63l5.51-2.62v4.25h2.22v3.34h-2.22v2.06a3.19,3.19,0,0,0,.19,1.35.76.76,0,0,0,.74.34A3.27,3.27,0,0,0,135.79,287.82Z"/><path class="cls-2" d="M145,291.7h-5.46v-4H145Z"/><path class="cls-2" d="M241.82,291.7h-9.11v-3.5h2.17v-6.89a6.73,6.73,0,0,1-1.62.15,3.86,3.86,0,0,1-.55,0v-3.37H233a6.34,6.34,0,0,0,2.66-.56,4.23,4.23,0,0,0,1.79-1.35h2.29v12h2.1Z"/><path class="cls-2" d="M243.6,288.06l3.81-.34a1.86,1.86,0,0,0,1.84,1.24q2.18,0,2.29-3.55a5.33,5.33,0,0,1-3.15.94,4.84,4.84,0,0,1-3.47-1.36,4.59,4.59,0,0,1-1.44-3.48,4.76,4.76,0,0,1,1.79-3.93,6.51,6.51,0,0,1,4.18-1.42,6.61,6.61,0,0,1,5,2,9.79,9.79,0,0,1,.16,11.53,6.54,6.54,0,0,1-5.3,2.11,6.89,6.89,0,0,1-3.73-.94A4.3,4.3,0,0,1,243.6,288.06Zm8-5.4q0-3.45-2-3.45-1.58,0-1.58,2a2.29,2.29,0,0,0,.47,1.55,1.49,1.49,0,0,0,1.21.56A3.39,3.39,0,0,0,251.61,282.67Z"/><path class="cls-2" d="M257.69,288.06l3.81-.34a1.86,1.86,0,0,0,1.84,1.24q2.18,0,2.29-3.55a5.33,5.33,0,0,1-3.15.94A4.84,4.84,0,0,1,259,285a4.59,4.59,0,0,1-1.45-3.48,4.76,4.76,0,0,1,1.8-3.93,6.51,6.51,0,0,1,4.18-1.42,6.61,6.61,0,0,1,5,2,9.79,9.79,0,0,1,.16,11.53,6.55,6.55,0,0,1-5.3,2.11,6.89,6.89,0,0,1-3.73-.94A4.29,4.29,0,0,1,257.69,288.06Zm8-5.4q0-3.45-2-3.45-1.58,0-1.58,2a2.3,2.3,0,0,0,.47,1.55,1.5,1.5,0,0,0,1.22.56A3.39,3.39,0,0,0,265.71,282.67Z"/><path class="cls-2" d="M280.4,286.93h3.15l-.13,4.76H271.3c0-.31,0-.46,0-.47a7.82,7.82,0,0,1,.92-3.81,7.91,7.91,0,0,1,1.3-1.72,15.51,15.51,0,0,1,2-1.72,19.64,19.64,0,0,0,2.59-2.15,2.11,2.11,0,0,0,.58-1.37,1.55,1.55,0,0,0-.39-1.09,1.53,1.53,0,0,0-1.18-.43q-1.68,0-1.69,2.13l-3.92-.12a4.41,4.41,0,0,1,1.74-3.71,8.37,8.37,0,0,1,8.52.16,3.92,3.92,0,0,1,1.69,3.28,3.86,3.86,0,0,1-.85,2.41,10.37,10.37,0,0,1-3.34,2.36A20.35,20.35,0,0,0,276.6,287a3.81,3.81,0,0,0-1.05,1.22h4.79Z"/><path class="cls-5" d="M110.89,291.7H96.37v-3.65h1.18v-7.94h-1.2v-3.65h14.55v4.87h-4v-1.23h-3.46v2.34h3v3.1h-3v2.5h3.46v-1.23h4Z"/><path class="cls-5" d="M116.95,291.83h-3.4v-3.37h3.19a3.65,3.65,0,0,0,2.68,1.29q1.47,0,1.47-.6a.51.51,0,0,0-.32-.47,10,10,0,0,0-1.74-.51q-1.14-.31-2.52-.71a5.79,5.79,0,0,1-1.88-.85,2.94,2.94,0,0,1-1-1,2.74,2.74,0,0,1-.26-1.29,2.9,2.9,0,0,1,1.25-2.59,5.57,5.57,0,0,1,3.14-.82,6.71,6.71,0,0,1,3.31.74v-.55h3.36v3.09h-3.11a3.86,3.86,0,0,0-2.76-1.11q-1.26,0-1.26.67,0,.32.37.42t2.1.47a23,23,0,0,1,3.16.85,3.92,3.92,0,0,1,1.7,1.13,2.67,2.67,0,0,1,.56,1.72,3,3,0,0,1-1.37,2.71,6.12,6.12,0,0,1-3.35.86,7.17,7.17,0,0,1-3.36-.72Z"/><path class="cls-5" d="M135.79,287.82v3.26a5.28,5.28,0,0,1-1.55.63,7.94,7.94,0,0,1-2.06.28,5.09,5.09,0,0,1-2.12-.4,3.15,3.15,0,0,1-1.37-1.12,4,4,0,0,1-.37-.74,3.55,3.55,0,0,1-.17-.75q-.08-.72-.08-2.79v-1.79H126.7v-3.34h1.36v-1.63l5.51-2.62v4.25h2.22v3.34h-2.22v2.06a3.19,3.19,0,0,0,.19,1.35.76.76,0,0,0,.74.34A3.27,3.27,0,0,0,135.79,287.82Z"/><path class="cls-5" d="M145,291.7h-5.46v-4H145Z"/><path class="cls-5" d="M241.82,291.7h-9.11v-3.5h2.17v-6.89a6.73,6.73,0,0,1-1.62.15,3.86,3.86,0,0,1-.55,0v-3.37H233a6.34,6.34,0,0,0,2.66-.56,4.23,4.23,0,0,0,1.79-1.35h2.29v12h2.1Z"/><path class="cls-5" d="M243.6,288.06l3.81-.34a1.86,1.86,0,0,0,1.84,1.24q2.18,0,2.29-3.55a5.33,5.33,0,0,1-3.15.94,4.84,4.84,0,0,1-3.47-1.36,4.59,4.59,0,0,1-1.44-3.48,4.76,4.76,0,0,1,1.79-3.93,6.51,6.51,0,0,1,4.18-1.42,6.61,6.61,0,0,1,5,2,9.79,9.79,0,0,1,.16,11.53,6.54,6.54,0,0,1-5.3,2.11,6.89,6.89,0,0,1-3.73-.94A4.3,4.3,0,0,1,243.6,288.06Zm8-5.4q0-3.45-2-3.45-1.58,0-1.58,2a2.29,2.29,0,0,0,.47,1.55,1.49,1.49,0,0,0,1.21.56A3.39,3.39,0,0,0,251.61,282.67Z"/><path class="cls-5" d="M257.69,288.06l3.81-.34a1.86,1.86,0,0,0,1.84,1.24q2.18,0,2.29-3.55a5.33,5.33,0,0,1-3.15.94A4.84,4.84,0,0,1,259,285a4.59,4.59,0,0,1-1.45-3.48,4.76,4.76,0,0,1,1.8-3.93,6.51,6.51,0,0,1,4.18-1.42,6.61,6.61,0,0,1,5,2,9.79,9.79,0,0,1,.16,11.53,6.55,6.55,0,0,1-5.3,2.11,6.89,6.89,0,0,1-3.73-.94A4.29,4.29,0,0,1,257.69,288.06Zm8-5.4q0-3.45-2-3.45-1.58,0-1.58,2a2.3,2.3,0,0,0,.47,1.55,1.5,1.5,0,0,0,1.22.56A3.39,3.39,0,0,0,265.71,282.67Z"/><path class="cls-5" d="M280.4,286.93h3.15l-.13,4.76H271.3c0-.31,0-.46,0-.47a7.82,7.82,0,0,1,.92-3.81,7.91,7.91,0,0,1,1.3-1.72,15.51,15.51,0,0,1,2-1.72,19.64,19.64,0,0,0,2.59-2.15,2.11,2.11,0,0,0,.58-1.37,1.55,1.55,0,0,0-.39-1.09,1.53,1.53,0,0,0-1.18-.43q-1.68,0-1.69,2.13l-3.92-.12a4.41,4.41,0,0,1,1.74-3.71,8.37,8.37,0,0,1,8.52.16,3.92,3.92,0,0,1,1.69,3.28,3.86,3.86,0,0,1-.85,2.41,10.37,10.37,0,0,1-3.34,2.36A20.35,20.35,0,0,0,276.6,287a3.81,3.81,0,0,0-1.05,1.22h4.79Z"/><path class="cls-4" d="M198.44,249.08a11,11,0,0,0-5.28-3.71l-3.61-1.43c-3.6-1.5-4.88-3.07-4.88-6,0-4.56,3-5,4.28-5,3,0,4.47,1.6,4.47,5v1h5.8v-1a11.41,11.41,0,0,0-1.56-6.36c-1.55-2.32-4.29-3.49-8.15-3.49a10.84,10.84,0,0,0-7.7,2.74A12.21,12.21,0,0,0,180.57,245a12,12,0,0,0,5.43,3.91l3.66,1.38h0c3.29,1.07,4.63,2.89,4.63,6.29a5.08,5.08,0,0,1-8.78,3.5,7.64,7.64,0,0,1-1.32-4.88V254h-5.8v1.1a13.11,13.11,0,0,0,2,7.63c1.75,2.49,4.57,3.76,8.39,3.76,3.56,0,6.33-.89,8.22-2.65s3.08-4.78,3.08-8.59A10.34,10.34,0,0,0,198.44,249.08Z"/><path class="cls-4" d="M215.1,229.73,208,229l-6.36,34.18,6.44-3.33,1.11-7.51,6.88-1.42,1.14,3.63,4.78-3.21Zm-.24,17.16-5.06,1,1.81-12.25Z"/><path class="cls-4" d="M176.25,228.75l-5.8.4v22.77a2.43,2.43,0,0,1-1,2.15,2.37,2.37,0,0,1-2.32-.12l0,0c-1.29-.79-4.23-2.61-4.46-5.18V230l-5.8.65V248.4h0a10.32,10.32,0,0,0,3.1,7.24,20.06,20.06,0,0,0,4.13,3.21l0,0a8.28,8.28,0,0,0,4.35,1.25,7.88,7.88,0,0,0,3.84-1,8,8,0,0,0,4-7h0Z"/><path class="cls-3" d="M85.19,57.43c.12-5.48.28-9.21.28-9.21L188.65,18.41,291.83,48.21s.17,3.26.29,9.09c-11,9.85-21.62,15.71-31.7,17.42a10.41,10.41,0,0,1-1.73.14c-8.94,0-23.89-9.92-27.54-12.5,2.12-.56,7.66-1.61,10.7-2.84l1.44-.58-1.5-.38c-11.34-3.11-17.16-8.15-25.73-14-10-6.79-20.26-13.81-29.65-14.56-1.19-.09-2.4-.14-3.59-.14-19,0-32.25,12.31-33.66,13.62a45.68,45.68,0,0,0-12.78,3c-5.19,2-8.35,4.85-9.14,8.47C125.71,62,130,72.48,131,73.72c.85-1.37,2.19-6.75,16.77-5.94,20.82,1.16,20.29,10.89,17.54,12.49-3.23,1.88-9.21,3.63-16.22,3.63C122.19,83.9,96.62,66.69,85.19,57.43Z"/><path class="cls-4" d="M164.87,50c2.45.32,11.37-5.89,11.37-5.89l-17.39,3S158.37,49.14,164.87,50Z"/><path class="cls-4" d="M370.7,62.61c-15.58,7-38.55,14.09-66.37,19.69a407.3,407.3,0,0,0-1-42.11L188.65,5.79,74,40.19A407.39,407.39,0,0,0,73,82.3C45.14,76.7,22.17,69.64,6.59,62.61l-.79-.36V74.94l.33.15C43.6,92,113.54,102.53,188.65,102.53S333.69,92,371.16,75.09l.33-.15V62.25Zm-285.47,22c-.11-5.12-.16-9.81-.17-14,10.72,8.9,27,15.79,35.06,19C107.94,88.27,96.27,86.56,85.23,84.62Zm0-27.19c.12-5.48.28-9.21.28-9.21L188.65,18.41,291.83,48.21s.17,3.26.29,9.09c-11,9.85-21.62,15.71-31.7,17.42a6.43,6.43,0,0,1-1.73.14c-9.21-.92-23.89-9.92-27.54-12.5,2.12-.56,7.66-1.61,10.7-2.84l1.44-.58s-18.66-8.53-27.24-14.37c-10-6.79-14.6-13.25-29.65-14.56-1.19-.1-2.4-.15-3.59-.14A48.62,48.62,0,0,0,149.08,43.3a49.58,49.58,0,0,0-12.71,3.17c-5.19,2-8.67,5.06-9.45,8.68-1.53,7,3.06,17.33,4.09,18.58.85-1.37,3.7-6.56,16.73-5.64,20.81,1.46,20.33,10.59,17.58,12.2-3.23,1.88-9.21,3.63-16.22,3.63C122.19,83.9,96.62,66.69,85.19,57.43ZM239.72,86.87c-7.82-1.43-31-6.6-31-6.6a48.28,48.28,0,0,0,11.07,9.2c-7.39-.53-26.39-4.12-26.39-4.12s-7.29,3.68-10.66,5.14a26.93,26.93,0,0,0,.75-4.93s-16.13,3.93-21.68,4.05c.88-.45,15.9-5.33,12.65-17.08C171.29,61,158.15,58,158.15,58s8.49,5.68,10.56,11.23C167.2,66.47,145,58.7,132.53,66.4c-.08,0-2-8-.54-11.12.88-1.81,2.11-3.27,5.5-4.54a50.7,50.7,0,0,1,14.13-3s1.43-1.06,3.54-2.87a40.35,40.35,0,0,1,26.13-9.74,52.46,52.46,0,0,1,6.25.48c12.13,1.47,14.12,5.94,22.48,11.83,6.81,4.8,19.32,10.61,19.68,10.74-2.88.63-12.24.68-12.24.68s20.36,15.53,34.13,20.37c-8.93.58-22.07-1.76-22.07-1.76C229.78,77.84,234.6,83.77,239.72,86.87Zm52.34-2.26c-12.77,2.25-20.83,3.5-35.12,5C272,84,285,76.77,292.23,70.51,292.22,74.72,292.17,79.46,292.06,84.62Z"/><path class="cls-5" d="M69.17,219.49l7.39-3.07A7,7,0,0,1,82,216.1a5.49,5.49,0,0,1,2.92,3.12l0,0a5.43,5.43,0,0,1-1.38,6.45l6.35,4.13-4.16,1.73-5.61-3.73L77.3,229l2.15,5.17-3.56,1.48Zm10.42,4.87c1.73-.72,2.34-2.06,1.77-3.42l0,0c-.63-1.52-2-1.87-3.75-1.15l-3.53,1.47L76,225.86Z"/><path class="cls-5" d="M86.62,212.49l12.53-4.15,1.08,3.25-8.9,2.95,1.12,3.37,7.83-2.59,1.08,3.25-7.83,2.59,1.16,3.49,9-3,1.08,3.25-12.65,4.19Z"/><path class="cls-5" d="M103.19,207.13l3.44-.88,10.63,8.4-2.68-10.44,3.68-.95,4.36,17-3.17.82-11-8.67,2.77,10.78-3.68.95Z"/><path class="cls-5" d="M127.61,205l-5.23,1-.67-3.49,14.24-2.73.67,3.49-5.23,1L134,218l-3.78.72Z"/><path class="cls-5" d="M143,198.64l3.52-.48,9.82,16.44-4,.54-2.12-3.67-7.33,1-1.05,4.1-3.89.53Zm5.41,9.65L145.34,203l-1.53,5.94Z"/><path class="cls-5" d="M157.21,197l3.84-.3,1.08,14,8.7-.67.27,3.49-12.54,1Z"/><path class="cls-5" d="M172.27,210.9l2.21-2.78a8,8,0,0,0,5.28,2c1.57,0,2.51-.69,2.48-1.71v0c0-1-.64-1.46-3.58-2.14-3.55-.81-5.84-1.73-5.93-5.21v0c-.08-3.17,2.42-5.34,6-5.42a10.13,10.13,0,0,1,6.55,2.07l-1.93,2.95a8.21,8.21,0,0,0-4.59-1.61c-1.47,0-2.23.73-2.21,1.58v0c0,1.15.79,1.51,3.83,2.21,3.57.84,5.6,2.06,5.68,5.11v0c.08,3.47-2.52,5.49-6.29,5.58A11.14,11.14,0,0,1,172.27,210.9Z"/><path class="cls-5" d="M206,212.09a7.89,7.89,0,0,1-5.22,1.67c-3.34-.18-5.76-2.26-5.6-5.36v0c.12-2.22,1.4-3.73,3.65-4.61a5.85,5.85,0,0,1-1-3.56v0c.13-2.4,2.17-4.49,5.54-4.31,3,.16,4.81,2.21,4.68,4.66v0c-.13,2.35-1.7,3.64-3.92,4.37l2.2,2.45c.62-.87,1.25-1.86,1.86-2.9l2.74,1.7a32.25,32.25,0,0,1-2.5,3.57l2.43,2.71-2.93,1.82Zm-2-2.31-3.16-3.58a2.61,2.61,0,0,0-1.75,2.21v0c-.07,1.22.91,2.1,2.34,2.18A4.14,4.14,0,0,0,204,209.78Zm.7-9.2v0a1.54,1.54,0,0,0-1.56-1.71,1.65,1.65,0,0,0-1.79,1.68v0a3.13,3.13,0,0,0,.91,2.23C203.8,202.28,204.63,201.67,204.69,200.58Z"/><path class="cls-5" d="M226.06,201.71l-5.28-.7.46-3.52,14.37,1.89-.46,3.52-5.28-.7L228.05,216l-3.82-.5Z"/><path class="cls-5" d="M235.9,208.28v0a9.31,9.31,0,0,1,18.29,3.42v0a9.31,9.31,0,0,1-18.29-3.42ZM250.22,211v0a5.32,5.32,0,0,0-4.18-6.39,5.24,5.24,0,0,0-6.18,4.38v0a5.32,5.32,0,0,0,4.18,6.39A5.23,5.23,0,0,0,250.22,211Z"/><path class="cls-5" d="M257,213.66l2.47-9.69,3.73,1-2.45,9.59c-.7,2.76.31,4.54,2.59,5.13s4-.45,4.7-3.14l2.48-9.72,3.73,1-2.44,9.57c-1.31,5.14-4.84,6.92-9.39,5.76S255.69,218.66,257,213.66Z"/><path class="cls-5" d="M278.45,209l7.63,2.4a7,7,0,0,1,4.33,3.22,5.5,5.5,0,0,1,.23,4.27v0a5.44,5.44,0,0,1-5.2,4.05l2.21,7.24-4.29-1.35-1.9-6.47-2.89-.91-1.68,5.34-3.67-1.15Zm4.85,10.43c1.79.56,3.11-.07,3.56-1.48l0,0c.49-1.57-.35-2.73-2.14-3.29l-3.65-1.15-1.51,4.79Z"/><path class="cls-5" d="M289.73,228.25l3.08-1.77a8,8,0,0,0,4.17,3.8c1.48.54,2.58.29,2.94-.67l0,0c.34-.92-.05-1.59-2.54-3.31-3-2.06-4.79-3.77-3.59-7l0,0c1.1-3,4.22-4.07,7.57-2.83a10.13,10.13,0,0,1,5.33,4.34l-2.88,2a8.21,8.21,0,0,0-3.67-3.19c-1.38-.51-2.34-.15-2.64.65l0,0c-.4,1.08.18,1.69,2.75,3.46,3,2.1,4.45,4,3.39,6.85l0,0c-1.2,3.26-4.36,4.17-7.9,2.87A11.13,11.13,0,0,1,289.73,228.25Z"/></g></g></svg>